<?xml version="1.0" encoding="UTF-8"?>
<svg id="_图层_1" data-name="图层 1" xmlns="http://www.w3.org/2000/svg" viewBox="0 0 500 500">
  <defs>
    <style>
      .cls-1 {
        fill: #f0d642;
      }

      .cls-2 {
        fill: #1935a3;
      }
    </style>
  </defs>
  <rect class="cls-2" width="500" height="500"/>
  <path class="cls-1" d="m250.2,452.5c-44.4,0-79.37-13.6-104.9-40.79-25.53-27.2-38.29-66.5-38.29-117.94v-86.58c0-49.95,12.76-88.89,38.29-116.83,25.53-27.93,60.5-41.9,104.9-41.9s79.37,13.97,104.89,41.9c25.53,27.94,38.29,66.88,38.29,116.83v86.58c0,51.43-12.76,90.74-38.29,117.94-25.53,27.2-60.49,40.79-104.89,40.79Zm0-66.6c26.64,0,44.96-8.13,54.95-24.42,9.99-16.28,14.98-37.37,14.98-63.27v-95.46c0-16.28-2.41-31.08-7.21-44.4-4.81-13.32-12.31-23.87-22.48-31.64-10.18-7.77-23.59-11.65-40.24-11.65s-30.16,3.88-40.51,11.65c-10.36,7.77-17.86,18.31-22.48,31.64-4.63,13.32-6.94,28.12-6.94,44.4v95.46c0,25.9,4.99,46.99,14.98,63.27,9.99,16.29,28.31,24.42,54.95,24.42Z"/>
</svg>